HIERARCHY
ROOT Hips
{
	OFFSET	0.000000	0.000000	0.000000
	CHANNELS 6 Xposition Yposition Zposition Zrotation Xrotation Yrotation
	JOINT LeftHip
	{
		OFFSET	4.740440	-3.195970	-0.322709
		CHANNELS 3 Zrotation Xrotation Yrotation
		JOINT LeftKnee
		{
			OFFSET	-1.605680	-15.592300	1.005510
			CHANNELS 3 Zrotation Xrotation Yrotation
			JOINT LeftAnkle
			{
				OFFSET	-0.632401	-16.421000	-1.413730
				CHANNELS 3 Zrotation Xrotation Yrotation
				End Site
				{
					OFFSET	0.008423	-2.933000	-1.684880
				}
			}
		}
	}
	JOINT RightHip
	{
		OFFSET	-4.740440	-3.195970	-0.322709
		CHANNELS 3 Zrotation Xrotation Yrotation
		JOINT RightKnee
		{
			OFFSET	1.605680	-15.592300	1.005510
			CHANNELS 3 Zrotation Xrotation Yrotation
			JOINT RightAnkle
			{
				OFFSET	0.632401	-16.421000	-1.413730
				CHANNELS 3 Zrotation Xrotation Yrotation
				End Site
				{
					OFFSET	-0.008423	-2.933000	-1.684880
				}
			}
		}
	}
	JOINT Chest
	{
		OFFSET	0.000000	3.468200	0.078401
		CHANNELS 3 Zrotation Xrotation Yrotation
		JOINT LeftCollar
		{
			OFFSET	3.857650	15.070700	-0.011583
			CHANNELS 3 Zrotation Xrotation Yrotation
			JOINT LeftShoulder
			{
				OFFSET	3.979720	-1.940530	-0.165223
				CHANNELS 3 Zrotation Xrotation Yrotation
				JOINT LeftElbow
				{
					OFFSET	0.615844	-10.986600	-0.673886
					CHANNELS 3 Zrotation Xrotation Yrotation
					JOINT LeftWrist
					{
						OFFSET	0.826843	-10.854500	1.034220
						CHANNELS 3 Zrotation Xrotation Yrotation
						End Site
						{
							OFFSET	-1.679080	-8.456540	0.936217
						}
					}
				}
			}
		}
		JOINT RightCollar
		{
			OFFSET	-3.857650	15.070700	-0.011583
			CHANNELS 3 Zrotation Xrotation Yrotation
			JOINT RightShoulder
			{
				OFFSET	-3.979720	-1.940530	-0.165223
				CHANNELS 3 Zrotation Xrotation Yrotation
				JOINT RightElbow
				{
					OFFSET	-0.615845	-10.986600	-0.673886
					CHANNELS 3 Zrotation Xrotation Yrotation
					JOINT RightWrist
					{
						OFFSET	-0.826843	-10.854500	1.034220
						CHANNELS 3 Zrotation Xrotation Yrotation
						End Site
						{
							OFFSET	1.679080	-8.456540	0.936217
						}
					}
				}
			}
		}
		JOINT Neck
		{
			OFFSET	0.000000	15.101400	0.055730
			CHANNELS 3 Zrotation Xrotation Yrotation
			JOINT Head
			{
				OFFSET	0.000000	4.185120	1.488260
				CHANNELS 3 Zrotation Xrotation Yrotation
				End Site
				{
					OFFSET	0.000000	7.773420	-0.106016
				}
			}
		}
	}
}
MOTION
Frames:     10
Frame Time: 0.016667
-12.512259	37.779240	70.524071	1.938173	-10.150822	5.355632	12.433939	9.420995	-3.214393	-5.058057	23.547319	7.332663	-6.368594	2.949535	2.915369	-4.362241	-0.291633	-1.638662	4.878478	13.360198	0.862702	-1.119891	-2.701584	-7.040346	-2.965836	4.782217	-1.717587	-1.010761	5.285542	-1.030452	10.367981	-4.559056	-0.258129	-2.303582	-8.861296	5.134345	15.179349	8.393229	-29.403275	0.810760	1.297058	4.796729	-4.349798	-0.044062	-7.045561	-1.783717	-2.751185	15.242129	-12.812041	1.778590	7.801179	2.838760	8.097690	-2.780391	2.314362	3.538930	3.944537	
-12.674540	37.720512	70.737137	1.959745	-10.317065	5.959910	12.906153	9.078296	-3.721290	-5.515385	24.906645	6.954274	-6.071148	2.582758	3.257098	-3.945673	0.251408	-1.779265	5.069859	13.373106	0.604645	-1.655236	-3.055526	-7.348094	-2.775133	5.014110	-1.687610	-1.028681	5.278349	-1.303802	10.315580	-4.491039	-0.081120	-2.087419	-9.093753	5.328277	15.168023	8.339861	-29.377939	0.708393	1.187922	4.557696	-4.795837	-0.299211	-6.723748	-1.609256	-2.748229	15.019904	-12.809080	1.768842	7.803574	2.820513	7.960958	-2.999582	2.198438	3.416798	4.343511	
-12.891394	37.705708	70.906639	1.967489	-10.462368	6.573872	14.059080	7.749825	-3.864547	-6.521768	27.295795	6.064753	-5.405721	3.246626	4.193606	-3.526469	0.736082	-1.957409	5.237729	13.400519	0.384428	-2.200606	-3.341537	-7.697225	-2.572661	5.213097	-1.608607	-0.799753	5.403696	-0.440649	10.014400	-4.531772	-0.038537	-1.451943	-9.769919	6.238824	15.024282	8.191101	-29.402895	0.685911	1.062997	5.069652	-5.369431	-0.416415	-7.167034	-1.754875	-3.537571	15.782946	-13.204931	1.312173	8.173856	2.919361	7.744365	-2.426372	2.036880	3.326493	3.931248	
-13.106780	37.685905	71.076096	1.940238	-10.504241	7.171015	14.522709	7.157701	-4.290046	-6.888866	28.331146	5.778377	-5.375588	3.178117	4.575690	-3.092530	1.126953	-2.170841	5.422929	13.373870	0.248761	-2.716709	-3.636572	-8.074761	-2.346347	5.294378	-1.514329	-0.752374	5.438743	-0.314866	9.823265	-4.606119	-0.361249	-1.193204	-10.044305	6.660216	14.953296	8.184258	-29.453026	0.601295	1.021584	4.794209	-5.906785	-0.651543	-6.754881	-1.741745	-3.931297	15.948796	-13.279127	1.324490	8.106386	2.926706	7.670238	-2.690114	1.963652	3.168098	4.398491	
-13.288707	37.667965	71.248444	1.891340	-10.410820	7.728962	15.663562	5.448052	-4.209742	-8.039474	31.551250	5.387731	-5.938566	2.504425	5.565784	-2.671689	1.381176	-2.329862	5.582149	13.295874	0.120936	-3.300669	-3.866858	-8.545154	-2.121700	5.232568	-1.427815	-0.751932	5.519933	-0.162459	9.551487	-4.519214	0.320360	-0.242159	-10.946519	8.217602	14.588362	8.171268	-29.652960	0.591284	0.980458	5.455445	-6.606565	-0.775521	-7.200410	-1.706673	-4.277586	16.105824	-13.350399	1.347855	8.037947	3.088372	7.642150	-2.062250	1.820858	3.006589	4.009287	
-13.482340	37.643108	71.410034	1.833824	-10.415408	8.246109	16.402622	4.338992	-4.268527	-8.619544	33.038723	5.238639	-6.142872	2.098020	5.612700	-2.210842	1.682405	-2.356524	5.719340	13.249881	-0.082472	-3.720177	-4.143474	-8.945260	-1.948807	5.255458	-1.630473	-0.753890	5.609075	0.324046	9.356273	-4.654050	-0.005470	0.137284	-11.260556	8.845534	14.449677	8.151369	-29.715363	0.598878	0.959851	5.586911	-7.281148	-1.008374	-6.806297	-1.689452	-4.584434	16.257835	-13.422333	1.406979	7.979945	3.160277	7.651165	-1.949700	1.751982	2.918373	4.022476	
-13.659917	37.620499	71.558731	1.823330	-10.448978	8.712149	17.021467	3.367153	-4.148719	-9.131079	34.835968	5.445371	-6.744911	0.745436	4.392074	-1.795581	1.991281	-2.282266	5.832342	13.179272	-0.360949	-4.242661	-4.365710	-9.333243	-1.668984	5.344279	-1.200152	-0.884510	5.696685	0.233929	8.835500	-4.729408	0.511299	1.380724	-12.093694	10.994421	14.283792	7.948061	-29.707146	0.646892	0.860171	6.027631	-8.174663	-1.053598	-7.322128	-1.670251	-4.860072	16.426426	-13.509782	1.477374	7.976015	3.297831	7.692682	-1.562537	1.584392	2.687618	4.135012	
-13.789884	37.607372	71.678467	1.844919	-10.507914	8.915601	17.716093	2.321939	-3.255585	-9.297217	36.096004	4.372833	-6.940154	0.177240	3.848325	-1.422891	2.299000	-2.001967	5.726917	13.027821	-0.716905	-4.519200	-4.564834	-9.491834	-1.533948	5.426630	-0.822558	-0.989109	5.790131	0.425079	8.660477	-4.927859	0.188015	1.751217	-12.322765	11.703097	14.329041	7.858367	-29.561886	0.622327	0.820715	5.889642	-8.594300	-1.101990	-7.388369	-1.654262	-4.983949	16.536428	-13.576459	1.499108	7.979207	3.348622	7.766795	-1.355232	1.528902	2.542829	3.806388	
-13.972665	37.584385	71.850098	1.999301	-10.738509	9.388034	17.920797	1.804747	-2.962857	-9.340226	36.659554	3.516824	-7.545679	-0.977253	2.692914	-1.143792	2.806491	-2.061774	5.849955	13.121509	-0.756630	-4.981455	-4.903733	-10.020835	-1.446245	5.729483	-0.702634	-1.144604	5.822572	0.578901	8.241530	-5.044206	0.643037	2.757040	-12.876265	13.673852	14.695504	7.478380	-28.860229	0.647763	0.777044	6.628977	-9.670598	-1.348006	-7.649094	-1.689850	-5.276696	16.812702	-13.859488	1.583400	8.029598	3.320368	7.837854	-1.169026	1.482781	2.455513	4.419430	
-14.041289	37.580936	71.917740	2.082072	-10.780427	9.562379	18.072998	1.193033	-2.512734	-9.298288	37.171463	2.850468	-7.753251	-1.212872	2.533388	-1.050543	2.988266	-2.075835	5.858122	13.095528	-0.796807	-5.163311	-5.001770	-10.183037	-1.418841	5.812198	-0.586293	-1.232382	5.836530	0.994826	8.102946	-5.159899	0.291876	3.030916	-13.014710	14.210762	14.823743	7.363625	-28.583624	0.597266	0.722164	6.746144	-9.971979	-1.413436	-7.728331	-1.716841	-5.358576	16.887543	-13.977038	1.629322	8.040906	3.253838	7.844560	-1.091964	1.502025	2.450880	4.493163	
